<?xml version="1.0" encoding="utf-8"?>
<!-- Generator: Adobe Illustrator 16.0.0, SVG Export Plug-In . SVG Version: 6.00 Build 0)  -->
<!DOCTYPE svg PUBLIC "-//W3C//DTD SVG 1.1//EN" "http://www.w3.org/Graphics/SVG/1.1/DTD/svg11.dtd">
<svg version="1.1" id="Layer_1" xmlns="http://www.w3.org/2000/svg" xmlns:xlink="http://www.w3.org/1999/xlink" x="0px" y="0px"
	 width="200px" height="68px" viewBox="0 16 200 68" enable-background="new 0 16 200 68" xml:space="preserve">
<g id="Layer_1_1_" display="none">
	<g display="inline">
		
			<text transform="matrix(0.9 0 0 1 -548.0039 122.3623)" fill="#2F383F" font-family="'Audiowide-Regular'" font-size="90" letter-spacing="-3.333">UP2DATE</text>
		
			<text transform="matrix(0.9 0 0 1 -542.27 206.3623)" fill="#2F383F" font-family="'Audiowide-Regular'" font-size="80" letter-spacing="3.333">Solutions</text>
	</g>
	
		<text transform="matrix(1 0 0 1 -446.0508 910.1191)" display="inline" fill="#2F383F" font-family="'TitilliumWeb-Bold'" font-size="90" letter-spacing="-3">UP2DATE</text>
	
		<text transform="matrix(0.95 0 0 1 -536.1108 596.6348)" display="inline" fill="#2F383F" font-family="'WorkSans-Bold'" font-size="90">UP2DATE</text>
	
		<text transform="matrix(0.95 0 0 1 -536.8789 680.6348)" display="inline" fill="#2F383F" font-family="'WorkSans-Bold'" font-size="90">Solutions</text>
</g>
<g id="Layer_2" display="none">
	<g display="inline">
		<path fill="#2B3039" d="M-451.952-273.172c0,3.486-0.667,6.759-2.001,9.819c-1.334,3.061-3.157,5.727-5.469,7.996
			c-2.313,2.27-5.018,4.064-8.115,5.382c-3.098,1.318-6.41,1.977-9.938,1.977c-3.528,0-6.84-0.659-9.938-1.977
			c-3.098-1.318-5.795-3.112-8.092-5.382c-2.297-2.269-4.113-4.935-5.447-7.996c-1.334-3.06-2.001-6.333-2.001-9.819v-37.826h12.717
			v37.826c0,1.729,0.333,3.354,1,4.877s1.578,2.855,2.734,3.998s2.512,2.043,4.068,2.702c1.556,0.659,3.208,0.988,4.958,0.988
			s3.402-0.33,4.958-0.988c1.556-0.659,2.912-1.561,4.068-2.702c1.156-1.142,2.067-2.475,2.734-3.998c0.667-1.522,1-3.148,1-4.877
			v-37.826h12.761v37.826H-451.952z"/>
		<path fill="#2B3039" d="M-435.441-247.998h-12.511v-63h25.022c2.295,0,4.504,0.301,6.626,0.9c2.121,0.601,4.104,1.45,5.95,2.548
			c1.845,1.098,3.531,2.417,5.057,3.954c1.526,1.537,2.833,3.244,3.923,5.118c1.09,1.875,1.933,3.881,2.528,6.019
			c0.595,2.138,0.894,4.365,0.894,6.678c0,3.456-0.654,6.715-1.961,9.775c-1.308,3.061-3.095,5.733-5.362,8.018
			c-2.267,2.285-4.919,4.086-7.956,5.404s-6.271,1.977-9.699,1.977h-12.511V-247.998L-435.441-247.998z M-435.441-298.389v25.217
			h12.511c1.714,0,3.327-0.329,4.838-0.988c1.511-0.659,2.833-1.56,3.967-2.702s2.027-2.482,2.681-4.02
			c0.654-1.538,0.981-3.17,0.981-4.898c0-1.728-0.327-3.361-0.981-4.898c-0.654-1.538-1.547-2.877-2.681-4.021
			c-1.133-1.143-2.456-2.043-3.967-2.702c-1.511-0.659-3.124-0.988-4.838-0.988H-435.441L-435.441-298.389z"/>
		
			<linearGradient id="SVGID_1_" gradientUnits="userSpaceOnUse" x1="-485.1724" y1="492.0752" x2="-490.8447" y2="427.2408" gradientTransform="matrix(1 0 0 -1 116 181)">
			<stop  offset="0" style="stop-color:#45C5E2"/>
			<stop  offset="1" style="stop-color:#367B99"/>
		</linearGradient>
		<path fill="url(#SVGID_1_)" d="M-349.952-292.107c0,2.607-0.508,5.06-1.523,7.359c-1.017,2.3-2.398,4.306-4.146,6.019
			s-3.787,3.068-6.118,4.063c-2.33,0.996-4.825,1.494-7.485,1.494h-6.454c-0.896,0-1.733,0.161-2.51,0.483
			c-0.778,0.323-1.457,0.769-2.04,1.34c-0.583,0.571-1.038,1.238-1.367,1.999c-0.329,0.762-0.493,1.582-0.493,2.46v6.282h30.389
			v12.609h-43.252v-18.891c0-2.607,0.508-5.059,1.524-7.359c1.016-2.299,2.398-4.306,4.146-6.019s3.787-3.06,6.118-4.042
			c2.33-0.981,4.825-1.472,7.485-1.472h6.454c0.896,0,1.733-0.161,2.51-0.483c0.777-0.322,1.457-0.769,2.04-1.34
			s1.038-1.245,1.367-2.021s0.493-1.604,0.493-2.482s-0.164-1.698-0.493-2.46c-0.329-0.762-0.784-1.428-1.367-1.999
			c-0.583-0.571-1.263-1.018-2.04-1.34c-0.776-0.322-1.613-0.483-2.51-0.483h-22.947v-12.609h22.947c2.66,0,5.155,0.499,7.485,1.494
			c2.331,0.996,4.37,2.351,6.118,4.064s3.13,3.712,4.146,5.997C-350.46-297.159-349.952-294.713-349.952-292.107z"/>
		<path fill="#2B3039" d="M-292.952-279.498c0,2.899-0.377,5.689-1.133,8.369c-0.754,2.68-1.826,5.184-3.217,7.513
			c-1.391,2.329-3.049,4.452-4.973,6.37c-1.924,1.918-4.066,3.566-6.436,4.942c-2.367,1.377-4.904,2.438-7.611,3.186
			c-2.707,0.747-5.527,1.12-8.455,1.12h-19.176v-63h19.176c2.928,0,5.748,0.374,8.455,1.12c2.707,0.747,5.244,1.809,7.611,3.186
			c2.369,1.377,4.512,3.024,6.436,4.942c1.924,1.918,3.582,4.042,4.973,6.37c1.391,2.328,2.463,4.833,3.217,7.513
			C-293.329-285.188-292.952-282.397-292.952-279.498z M-305.69-279.498c0-2.606-0.498-5.052-1.488-7.337
			c-0.992-2.284-2.354-4.283-4.084-5.997c-1.729-1.713-3.758-3.068-6.08-4.064c-2.322-0.995-4.801-1.494-7.434-1.494h-6.35v37.782
			h6.35c2.633,0,5.111-0.49,7.434-1.472c2.322-0.981,4.352-2.329,6.08-4.042c1.73-1.713,3.092-3.719,4.084-6.019
			C-306.188-274.438-305.69-276.891-305.69-279.498z"/>
		<path fill="#2B3039" d="M-239.952-247.998h-12.512v-12.609h-25.021v12.609h-12.467v-37.782c0-3.485,0.654-6.758,1.963-9.819
			c1.307-3.06,3.086-5.733,5.338-8.018c2.252-2.285,4.896-4.086,7.934-5.404c3.038-1.318,6.283-1.977,9.744-1.977
			c3.459,0,6.705,0.659,9.74,1.977c3.039,1.318,5.689,3.119,7.957,5.404c2.268,2.285,4.053,4.958,5.361,8.018
			c1.307,3.061,1.963,6.334,1.963,9.819V-247.998L-239.952-247.998z M-252.464-273.172v-12.608c0-1.728-0.328-3.361-0.98-4.898
			c-0.654-1.538-1.549-2.877-2.682-4.021c-1.133-1.143-2.463-2.043-3.988-2.702c-1.525-0.659-3.145-0.988-4.859-0.988
			c-1.717,0-3.336,0.33-4.861,0.988c-1.527,0.659-2.855,1.56-3.988,2.702c-1.135,1.142-2.027,2.482-2.682,4.021
			c-0.652,1.538-0.98,3.171-0.98,4.898v12.608H-252.464z"/>
		<path fill="#2B3039" d="M-207.696-247.998h-12.469v-50.391h-18.787v-12.609h50v12.609h-18.744V-247.998z"/>
		<path fill="#2B3039" d="M-142.952-247.998h-43v-63h43v12.609h-30.447v12.609h20.605v12.608h-20.605v12.565h30.447V-247.998z"/>
	</g>
	<g display="inline">
		<path fill="#2B3039" d="M-502.952-208.106c0-2.607,0.504-5.053,1.512-7.337c1.007-2.284,2.379-4.283,4.113-5.997
			c1.734-1.712,3.757-3.067,6.069-4.063s4.787-1.494,7.426-1.494h29.257v12.609h-29.257c-0.89,0-1.72,0.161-2.49,0.483
			c-0.771,0.322-1.445,0.77-2.023,1.339c-0.578,0.572-1.03,1.238-1.356,2c-0.326,0.761-0.489,1.582-0.489,2.46
			s0.163,1.706,0.489,2.481c0.326,0.777,0.778,1.451,1.356,2.021c0.578,0.572,1.252,1.018,2.023,1.34
			c0.771,0.322,1.601,0.484,2.49,0.484h12.761c2.638,0,5.121,0.49,7.448,1.471s4.357,2.328,6.092,4.043
			c1.734,1.713,3.097,3.719,4.09,6.018c0.993,2.301,1.49,4.752,1.49,7.359s-0.497,5.051-1.49,7.336
			c-0.993,2.285-2.356,4.283-4.09,5.998c-1.734,1.713-3.765,3.068-6.092,4.063c-2.327,0.996-4.81,1.494-7.448,1.494h-28.323v-12.609
			h28.323c0.89,0,1.719-0.16,2.49-0.482c0.771-0.322,1.445-0.77,2.023-1.34c0.578-0.572,1.03-1.238,1.356-1.998
			c0.326-0.762,0.489-1.582,0.489-2.461c0-0.879-0.163-1.699-0.489-2.461c-0.326-0.762-0.778-1.428-1.356-1.998
			c-0.578-0.57-1.252-1.018-2.023-1.34s-1.601-0.484-2.49-0.484h-12.761c-2.639,0-5.114-0.498-7.426-1.494s-4.335-2.35-6.069-4.063
			c-1.734-1.713-3.105-3.721-4.113-6.02C-502.448-203.047-502.952-205.5-502.952-208.106z"/>
	</g>
	<g display="inline">
		<path fill="#2B3039" d="M-400.952-188.955c0,3.535-0.656,6.826-1.965,9.873c-1.31,3.049-3.092,5.684-5.348,7.908
			c-2.255,2.221-4.897,3.975-7.929,5.254c-3.032,1.283-6.285,1.922-9.758,1.922c-3.443,0-6.681-0.639-9.712-1.922
			c-3.032-1.279-5.683-3.033-7.952-5.254c-2.27-2.225-4.061-4.859-5.37-7.908c-1.31-3.047-1.965-6.338-1.965-9.873
			c0-3.592,0.655-6.92,1.965-9.982c1.31-3.063,3.101-5.703,5.37-7.926c2.269-2.225,4.92-3.969,7.952-5.235
			c3.032-1.266,6.269-1.899,9.712-1.899c3.473,0,6.726,0.597,9.758,1.789c3.031,1.193,5.674,2.887,7.929,5.081
			c2.255,2.193,4.038,4.83,5.348,7.906C-401.608-196.145-400.952-192.723-400.952-188.955z M-413.521-188.955
			c0-1.943-0.327-3.701-0.982-5.275c-0.656-1.576-1.546-2.932-2.673-4.064c-1.128-1.135-2.446-2.002-3.954-2.607
			c-1.508-0.602-3.115-0.904-4.822-0.904s-3.314,0.303-4.822,0.904c-1.508,0.605-2.818,1.473-3.931,2.607
			c-1.112,1.133-1.988,2.488-2.628,4.064c-0.64,1.574-0.959,3.332-0.959,5.275c0,1.826,0.319,3.521,0.959,5.082
			s1.516,2.914,2.628,4.063c1.112,1.149,2.423,2.053,3.931,2.717c1.508,0.662,3.115,0.994,4.822,0.994s3.314-0.311,4.822-0.93
			c1.508-0.617,2.826-1.486,3.954-2.604c1.126-1.119,2.017-2.475,2.673-4.064C-413.848-185.287-413.521-187.041-413.521-188.955z"/>
	</g>
	<g display="inline">
		<path fill="#2B3039" d="M-385.952-163.998h-12v-62.999h12V-163.998z"/>
	</g>
	<g display="inline">
		<path fill="#2B3039" d="M-345.123-170.645c-1.013,0.918-2.093,1.779-3.242,2.592c-1.148,0.805-2.352,1.512-3.609,2.106
			c-1.257,0.594-2.552,1.068-3.885,1.42c-1.333,0.35-2.69,0.527-4.069,0.527c-3.035,0-5.886-0.535-8.552-1.605
			c-2.667-1.068-5.005-2.588-7.012-4.557c-2.008-1.973-3.586-4.371-4.736-7.197c-1.149-2.825-1.724-5.996-1.724-9.51v-27.131h12.506
			v27.131c0,1.648,0.252,3.125,0.758,4.424c0.506,1.297,1.188,2.389,2.045,3.275c0.858,0.885,1.863,1.557,3.012,2.018
			c1.149,0.457,2.383,0.688,3.701,0.688c1.287,0,2.506-0.297,3.655-0.895c1.149-0.596,2.152-1.383,3.012-2.361
			c0.857-0.978,1.532-2.084,2.022-3.322c0.49-1.234,0.736-2.513,0.736-3.826v-27.131h12.551v49.084h-3.034L-345.123-170.645z"/>
	</g>
	<g display="inline">
		<path fill="#2B3039" d="M-309.052-163.998c-2.9,0-5.625-0.523-8.176-1.576c-2.549-1.053-4.783-2.496-6.701-4.334
			c-1.92-1.84-3.43-3.979-4.527-6.418c-1.1-2.443-1.648-5.051-1.648-7.828v-13.385h-5.848v-11.445h5.848v-18.013h11.955v18.013
			h18.197v11.445h-18.197v13.385c0,1.205,0.234,2.336,0.705,3.389c0.467,1.051,1.111,1.969,1.934,2.754
			c0.818,0.785,1.787,1.41,2.9,1.875c1.113,0.461,2.299,0.693,3.559,0.693h9.1v11.445H-309.052L-309.052-163.998z"/>
	</g>
	<g display="inline">
		<path fill="#2B3039" d="M-282.952-219.573c0,1.035-0.211,1.999-0.631,2.897c-0.422,0.898-0.996,1.682-1.723,2.346
			c-0.727,0.667-1.578,1.198-2.551,1.592c-0.975,0.395-2.014,0.592-3.117,0.592c-1.105,0-2.143-0.198-3.119-0.592
			c-0.973-0.394-1.814-0.925-2.527-1.592c-0.711-0.665-1.279-1.448-1.699-2.346c-0.424-0.898-0.633-1.862-0.633-2.897
			c0-1.006,0.209-1.965,0.633-2.875c0.42-0.911,0.988-1.701,1.699-2.366c0.713-0.666,1.555-1.197,2.527-1.592
			c0.977-0.393,2.014-0.592,3.119-0.592c1.104,0,2.143,0.199,3.117,0.592c0.973,0.396,1.824,0.926,2.551,1.592
			s1.301,1.456,1.723,2.366C-283.163-221.538-282.952-220.579-282.952-219.573z M-284.999-163.998h-11.992v-43.701h11.992V-163.998z
			"/>
	</g>
	<g display="inline">
		<path fill="#2B3039" d="M-232.952-188.955c0,3.533-0.654,6.826-1.963,9.873c-1.311,3.049-3.096,5.684-5.35,7.906
			c-2.254,2.222-4.896,3.977-7.93,5.256c-3.031,1.281-6.283,1.922-9.756,1.922c-3.445,0-6.682-0.641-9.715-1.922
			c-3.029-1.279-5.68-3.033-7.951-5.256c-2.27-2.223-4.061-4.857-5.369-7.906c-1.311-3.047-1.967-6.34-1.967-9.873
			c0-3.592,0.656-6.92,1.967-9.982c1.309-3.063,3.1-5.703,5.369-7.926c2.271-2.225,4.922-3.969,7.951-5.235
			c3.033-1.266,6.27-1.899,9.715-1.899c3.473,0,6.725,0.597,9.756,1.789c3.033,1.193,5.676,2.887,7.93,5.081s4.039,4.83,5.35,7.906
			C-233.606-196.145-232.952-192.725-232.952-188.955z M-245.519-188.955c0-1.943-0.33-3.701-0.984-5.275
			c-0.656-1.578-1.547-2.932-2.672-4.064c-1.127-1.135-2.445-2.002-3.955-2.607c-1.508-0.602-3.115-0.904-4.82-0.904
			c-1.709,0-3.316,0.303-4.822,0.904c-1.51,0.605-2.82,1.473-3.932,2.607c-1.113,1.133-1.988,2.486-2.627,4.064
			c-0.641,1.574-0.959,3.332-0.959,5.275c0,1.826,0.318,3.52,0.959,5.08c0.639,1.561,1.514,2.916,2.627,4.064
			c1.111,1.148,2.422,2.053,3.932,2.717c1.506,0.662,3.113,0.994,4.822,0.994c1.705,0,3.313-0.311,4.82-0.93
			c1.51-0.617,2.828-1.486,3.955-2.604c1.125-1.117,2.016-2.473,2.672-4.063C-245.849-185.287-245.519-187.041-245.519-188.955z"/>
	</g>
	<g display="inline">
		<path fill="#2B3039" d="M-218.401-163.998h-12.551v-49.039h3.035l4.139,4.761c2.021-1.831,4.313-3.242,6.871-4.235
			c2.561-0.992,5.236-1.488,8.025-1.488c3.004,0,5.838,0.571,8.506,1.717c2.666,1.144,4.996,2.717,6.986,4.716
			c1.994,2,3.564,4.336,4.715,7.006c1.151,2.67,1.723,5.518,1.723,8.539V-164h-12.551v-28.021c0-1.281-0.246-2.494-0.734-3.641
			c-0.492-1.145-1.166-2.145-2.023-3c-0.857-0.854-1.857-1.525-2.99-2.014c-1.133-0.489-2.344-0.732-3.631-0.732
			c-1.318,0-2.561,0.244-3.725,0.732c-1.166,0.488-2.178,1.16-3.037,2.014c-0.857,0.855-1.531,1.855-2.021,3
			c-0.49,1.146-0.736,2.359-0.736,3.641L-218.401-163.998L-218.401-163.998z"/>
	</g>
	<g display="inline">
		<path fill="#2B3039" d="M-157.118-163.998h-27.834v-12.72h27.834c0.834,0,1.547-0.313,2.141-0.938
			c0.596-0.622,0.893-1.371,0.893-2.244c0-0.903-0.297-1.495-0.893-1.775c-0.594-0.283-1.307-0.425-2.141-0.425h-12.668
			c-2.111,0-4.088-0.419-5.932-1.262c-1.844-0.841-3.449-1.985-4.816-3.438c-1.369-1.449-2.447-3.14-3.236-5.074
			c-0.787-1.932-1.182-4.009-1.182-6.221c0-2.216,0.395-4.287,1.182-6.223c0.789-1.931,1.867-3.615,3.236-5.05
			c1.367-1.434,2.973-2.564,4.816-3.391c1.843-0.827,3.82-1.24,5.932-1.24h24.668v12.723h-24.668c-0.832,0-1.547,0.311-2.141,0.935
			c-0.596,0.622-0.893,1.373-0.893,2.246c0,0.903,0.297,1.676,0.893,2.313c0.594,0.641,1.309,0.961,2.141,0.961h12.668
			c2.082,0,4.045,0.367,5.889,1.099c1.844,0.733,3.449,1.754,4.816,3.063c1.369,1.312,2.455,2.885,3.258,4.726
			c0.803,1.838,1.203,3.851,1.203,6.033c0,2.214-0.4,4.281-1.203,6.196c-0.803,1.921-1.889,3.604-3.258,5.053
			c-1.367,1.45-2.973,2.589-4.816,3.416C-153.073-164.41-155.036-163.998-157.118-163.998z"/>
	</g>
	<text transform="matrix(1 0 0 1 -524 328)" display="inline" fill="#2F383F" font-family="'Righteous-Regular'" font-size="90">UP2DATE</text>
	<text transform="matrix(1 0 0 1 -524 412)" display="inline" fill="#2F383F" font-family="'Righteous-Regular'" font-size="90">Solutions</text>
	
		<text transform="matrix(1 0 0 1 404.1836 -276.3262)" display="inline" fill="#4D555B" font-family="'Righteous-Regular'" font-size="90">UP2DATE</text>
	
		<text transform="matrix(1 0 0 1 404.1836 -192.3262)" display="inline" fill="#4D555B" font-family="'Righteous-Regular'" font-size="90">Solutions</text>
	<text transform="matrix(1 0 0 1 -524 490)" display="inline" fill="#2F383F" font-family="'Righteous-Regular'" font-size="70">SOLUTIONS</text>
	<g display="inline">
		<path fill="#41474D" d="M334.014-24.25c-0.984,0-1.816-0.177-2.533-0.537c-0.715-0.36-1.315-0.81-1.813-1.369l0.433-0.417
			c0.469,0.528,1.041,0.953,1.721,1.272c0.668,0.32,1.393,0.473,2.193,0.473c0.516,0,0.998-0.069,1.414-0.205
			c0.417-0.124,0.777-0.309,1.077-0.552c0.292-0.233,0.517-0.508,0.69-0.845c0.158-0.326,0.246-0.694,0.246-1.106
			c0-0.415-0.066-0.764-0.199-1.06c-0.133-0.281-0.305-0.528-0.529-0.741c-0.209-0.205-0.462-0.384-0.76-0.544
			c-0.285-0.144-0.594-0.296-0.926-0.439l-2.017-0.867c-0.266-0.117-0.565-0.255-0.878-0.426c-0.308-0.167-0.587-0.369-0.854-0.604
			c-0.268-0.231-0.475-0.512-0.65-0.857c-0.174-0.328-0.25-0.74-0.25-1.205c0-0.449,0.085-0.85,0.27-1.218
			c0.182-0.367,0.439-0.688,0.773-0.96c0.332-0.259,0.711-0.469,1.157-0.621c0.45-0.136,0.933-0.212,1.466-0.212
			c0.782,0,1.477,0.144,2.085,0.452c0.591,0.297,1.078,0.636,1.462,1.038l-0.386,0.416c-0.381-0.409-0.838-0.728-1.37-0.968
			c-0.518-0.24-1.125-0.363-1.791-0.363c-0.91,0-1.645,0.214-2.201,0.655c-0.56,0.44-0.837,1.012-0.837,1.742
			c0,0.392,0.069,0.733,0.228,0.997c0.147,0.281,0.336,0.513,0.574,0.713c0.227,0.196,0.472,0.361,0.737,0.497
			c0.267,0.13,0.517,0.251,0.75,0.349l2.015,0.88c0.351,0.144,0.703,0.316,1.028,0.5c0.343,0.186,0.634,0.405,0.892,0.662
			c0.258,0.257,0.466,0.557,0.607,0.901c0.158,0.345,0.237,0.773,0.237,1.254s-0.106,0.925-0.304,1.316
			c-0.188,0.409-0.471,0.753-0.819,1.05c-0.366,0.296-0.79,0.535-1.29,0.702C335.161-24.34,334.611-24.25,334.014-24.25z"/>
		<path fill="#41474D" d="M349.967-24.25c-0.563,0-1.1-0.107-1.605-0.329c-0.508-0.209-0.953-0.521-1.336-0.937
			c-0.375-0.401-0.684-0.9-0.9-1.485c-0.227-0.601-0.341-1.269-0.341-2.023c0-0.752,0.114-1.433,0.341-2.034
			c0.217-0.601,0.523-1.106,0.9-1.507c0.383-0.4,0.828-0.71,1.336-0.936c0.507-0.208,1.043-0.325,1.605-0.325
			c0.564,0,1.108,0.117,1.616,0.325c0.507,0.225,0.953,0.536,1.329,0.936s0.688,0.906,0.906,1.507
			c0.222,0.601,0.341,1.281,0.341,2.034c0,0.754-0.12,1.422-0.341,2.023c-0.219,0.585-0.53,1.084-0.906,1.485
			c-0.376,0.417-0.821,0.728-1.329,0.937C351.075-24.357,350.531-24.25,349.967-24.25z M349.967-24.787
			c0.502,0,0.971-0.104,1.404-0.308c0.434-0.197,0.807-0.492,1.123-0.86c0.316-0.374,0.566-0.822,0.749-1.343
			c0.184-0.505,0.282-1.085,0.282-1.726c0-0.62-0.099-1.189-0.282-1.726c-0.183-0.521-0.433-0.978-0.749-1.354
			c-0.316-0.369-0.689-0.664-1.123-0.864c-0.434-0.217-0.902-0.316-1.404-0.316c-0.5,0-0.961,0.099-1.394,0.316
			c-0.435,0.2-0.808,0.495-1.124,0.864c-0.316,0.377-0.566,0.834-0.75,1.354c-0.184,0.537-0.282,1.105-0.282,1.726
			c0,0.641,0.099,1.221,0.282,1.726c0.184,0.521,0.434,0.969,0.75,1.343c0.316,0.369,0.689,0.664,1.124,0.86
			C349.005-24.891,349.466-24.787,349.967-24.787z"/>
		<path fill="#41474D" d="M364.232-24.25c-0.299,0-0.528-0.101-0.688-0.285c-0.173-0.185-0.251-0.498-0.251-0.933V-38.25h0.59
			v12.894c0,0.384,0.133,0.569,0.4,0.569c0.033,0,0.072,0,0.128,0c0.042,0,0.122-0.007,0.221-0.041l0.117,0.496
			c-0.079,0.032-0.146,0.041-0.22,0.057C364.454-24.259,364.355-24.25,364.232-24.25z"/>
		<path fill="#41474D" d="M378.057-24.25c-0.981,0-1.691-0.288-2.156-0.845c-0.465-0.552-0.69-1.43-0.69-2.631v-5.862h0.593v5.788
			c0,1.02,0.182,1.781,0.532,2.276c0.349,0.492,0.94,0.738,1.757,0.738c0.592,0,1.131-0.16,1.615-0.48
			c0.482-0.319,1.031-0.811,1.615-1.498v-6.823h0.6v9.109h-0.518l-0.082-1.565h-0.033c-0.477,0.529-0.975,0.961-1.479,1.298
			C379.298-24.417,378.707-24.25,378.057-24.25z"/>
		<path fill="#41474D" d="M396.011-24.25c-0.436,0-0.803-0.065-1.077-0.193c-0.293-0.127-0.513-0.303-0.679-0.529
			c-0.183-0.239-0.3-0.508-0.366-0.836c-0.066-0.329-0.092-0.684-0.092-1.068v-6.184h-1.499v-0.457l1.499-0.071l0.083-2.675h0.505
			v2.675h2.81v0.528h-2.81v6.247c0,0.305,0.024,0.564,0.066,0.813c0.058,0.249,0.128,0.469,0.248,0.645
			c0.125,0.178,0.293,0.321,0.501,0.417c0.224,0.096,0.501,0.152,0.846,0.152c0.183,0,0.392-0.032,0.607-0.097
			c0.232-0.063,0.425-0.136,0.611-0.211l0.195,0.493c-0.267,0.112-0.545,0.185-0.82,0.248
			C396.381-24.291,396.161-24.25,396.011-24.25z"/>
		<path fill="#41474D" d="M408.473-35.916c-0.183,0-0.333-0.06-0.466-0.183c-0.135-0.124-0.201-0.277-0.201-0.47
			c0-0.208,0.066-0.38,0.201-0.484c0.132-0.104,0.283-0.155,0.466-0.155c0.184,0,0.352,0.052,0.484,0.155
			c0.129,0.104,0.189,0.276,0.189,0.484c0,0.192-0.062,0.346-0.189,0.47C408.824-35.976,408.656-35.916,408.473-35.916z
			 M408.158-24.479v-9.109h0.599v9.109H408.158z"/>
		<path fill="#41474D" d="M424.146-24.25c-0.565,0-1.111-0.107-1.614-0.329c-0.501-0.209-0.942-0.521-1.324-0.937
			c-0.384-0.401-0.683-0.9-0.917-1.485c-0.216-0.601-0.325-1.269-0.325-2.023c0-0.752,0.109-1.433,0.325-2.034
			c0.234-0.601,0.533-1.106,0.917-1.507c0.382-0.4,0.823-0.71,1.324-0.936c0.503-0.208,1.049-0.325,1.614-0.325
			s1.096,0.117,1.603,0.325c0.508,0.225,0.953,0.536,1.336,0.936s0.683,0.906,0.899,1.507c0.232,0.601,0.342,1.281,0.342,2.034
			c0,0.754-0.109,1.422-0.342,2.023c-0.217,0.585-0.517,1.084-0.899,1.485c-0.383,0.417-0.828,0.728-1.336,0.937
			C425.243-24.357,424.713-24.25,424.146-24.25z M424.146-24.787c0.5,0,0.957-0.104,1.392-0.308c0.438-0.197,0.815-0.492,1.127-0.86
			c0.315-0.374,0.565-0.822,0.751-1.343c0.191-0.505,0.277-1.085,0.277-1.726c0-0.62-0.086-1.189-0.277-1.726
			c-0.186-0.521-0.436-0.978-0.751-1.354c-0.312-0.369-0.688-0.664-1.127-0.864c-0.435-0.217-0.892-0.316-1.392-0.316
			s-0.975,0.099-1.407,0.316c-0.433,0.2-0.808,0.495-1.124,0.864c-0.316,0.377-0.566,0.834-0.749,1.354
			c-0.184,0.537-0.273,1.105-0.273,1.726c0,0.641,0.09,1.221,0.273,1.726c0.183,0.521,0.433,0.969,0.749,1.343
			c0.315,0.369,0.691,0.664,1.124,0.86C423.173-24.891,423.648-24.787,424.146-24.787z"/>
		<path fill="#41474D" d="M438.819-24.479v-9.109h0.517l0.083,1.441h0.033c0.5-0.481,1.007-0.878,1.523-1.193
			c0.517-0.32,1.092-0.485,1.758-0.485c0.966,0,1.689,0.286,2.142,0.845c0.463,0.562,0.688,1.431,0.688,2.626v5.875h-0.582v-5.793
			c0-1.025-0.175-1.771-0.541-2.267c-0.35-0.496-0.941-0.744-1.758-0.744c-0.583,0-1.13,0.144-1.627,0.448
			c-0.492,0.304-1.038,0.769-1.637,1.376v6.979L438.819-24.479L438.819-24.479z"/>
		<path fill="#41474D" d="M458.586-24.25c-0.701,0-1.35-0.124-1.932-0.372c-0.583-0.249-1.083-0.542-1.499-0.894l0.398-0.449
			c0.386,0.321,0.827,0.608,1.3,0.833c0.465,0.224,1.065,0.344,1.779,0.344c0.384,0,0.743-0.061,1.042-0.165
			c0.3-0.104,0.55-0.252,0.75-0.428c0.2-0.177,0.341-0.388,0.458-0.622c0.101-0.231,0.15-0.476,0.15-0.733
			c0-0.305-0.076-0.572-0.209-0.789c-0.15-0.217-0.333-0.417-0.563-0.584c-0.221-0.185-0.475-0.316-0.751-0.431
			c-0.291-0.123-0.564-0.23-0.843-0.326c-0.368-0.128-0.729-0.265-1.1-0.409c-0.362-0.128-0.688-0.304-0.986-0.496
			c-0.292-0.183-0.529-0.421-0.712-0.685c-0.185-0.281-0.282-0.605-0.282-1.006c0-0.32,0.061-0.621,0.186-0.9
			c0.125-0.297,0.313-0.543,0.563-0.758c0.249-0.217,0.558-0.392,0.923-0.521c0.373-0.126,0.81-0.188,1.292-0.188
			c0.464,0,0.939,0.089,1.396,0.256c0.46,0.175,0.869,0.396,1.203,0.667l-0.352,0.451c-0.316-0.225-0.657-0.425-1.006-0.584
			c-0.352-0.175-0.781-0.248-1.283-0.248c-0.391,0-0.74,0.047-1.023,0.144c-0.293,0.113-0.534,0.238-0.717,0.421
			c-0.184,0.167-0.325,0.36-0.407,0.56c-0.101,0.217-0.143,0.429-0.143,0.67c0,0.273,0.066,0.508,0.201,0.708
			c0.132,0.201,0.304,0.37,0.521,0.521c0.216,0.136,0.457,0.268,0.732,0.38c0.271,0.113,0.545,0.233,0.836,0.328
			c0.375,0.144,0.75,0.276,1.127,0.416c0.375,0.145,0.716,0.309,1.009,0.509c0.304,0.2,0.549,0.449,0.741,0.746
			c0.188,0.296,0.278,0.668,0.278,1.117c0,0.32-0.07,0.64-0.213,0.945c-0.127,0.305-0.324,0.577-0.582,0.801
			c-0.259,0.232-0.584,0.417-0.976,0.553C459.513-24.322,459.073-24.25,458.586-24.25z"/>
	</g>
	<g display="inline">
		<path fill="#41474D" d="M348.667-49.841c0,1.325-0.245,2.564-0.752,3.737c-0.489,1.168-1.175,2.173-2.039,3.042
			c-0.854,0.869-1.86,1.543-3.017,2.055c-1.156,0.492-2.387,0.757-3.703,0.757c-1.315,0-2.547-0.265-3.695-0.757
			c-1.164-0.511-2.161-1.186-3.014-2.055c-0.857-0.869-1.539-1.875-2.029-3.042c-0.507-1.173-0.752-2.413-0.752-3.737V-64.25h4.743
			v14.409c0,0.656,0.122,1.28,0.366,1.853c0.246,0.574,0.588,1.092,1.013,1.519c0.44,0.444,0.94,0.789,1.517,1.035
			c0.578,0.247,1.199,0.369,1.85,0.369s1.273-0.122,1.852-0.369c0.578-0.246,1.077-0.591,1.518-1.035
			c0.424-0.427,0.767-0.944,1.011-1.519c0.245-0.573,0.373-1.197,0.373-1.853V-64.25h4.759L348.667-49.841L348.667-49.841z"/>
		<path fill="#41474D" d="M355.171-40.25h-4.505v-24h9.011c0.826,0,1.613,0.109,2.378,0.345c0.764,0.225,1.483,0.558,2.139,0.962
			c0.673,0.423,1.271,0.934,1.82,1.515c0.557,0.582,1.019,1.229,1.413,1.952c0.396,0.708,0.695,1.48,0.916,2.289
			c0.205,0.806,0.323,1.666,0.323,2.543c0,1.317-0.247,2.549-0.708,3.722c-0.479,1.166-1.121,2.177-1.938,3.046
			c-0.813,0.871-1.77,1.561-2.852,2.068c-1.096,0.496-2.268,0.741-3.491,0.741h-4.506V-40.25L355.171-40.25z M355.171-59.453v9.611
			h4.506c0.612,0,1.195-0.123,1.732-0.384c0.553-0.25,1.022-0.594,1.437-1.021c0.398-0.443,0.721-0.947,0.955-1.528
			c0.245-0.596,0.36-1.208,0.36-1.87c0-0.666-0.115-1.275-0.36-1.874c-0.232-0.582-0.557-1.085-0.955-1.529
			c-0.414-0.426-0.884-0.771-1.437-1.018c-0.537-0.264-1.121-0.387-1.732-0.387H355.171z"/>
		
			<linearGradient id="SVGID_2_" gradientUnits="userSpaceOnUse" x1="262.8984" y1="245.2705" x2="260.7429" y2="220.6322" gradientTransform="matrix(1 0 0 -1 116 181)">
			<stop  offset="0" style="stop-color:#45C5E2"/>
			<stop  offset="1" style="stop-color:#367B99"/>
		</linearGradient>
		<path fill="url(#SVGID_2_)" d="M385.667-57.054c0,0.997-0.188,1.93-0.554,2.807c-0.356,0.876-0.846,1.63-1.467,2.281
			c-0.621,0.664-1.354,1.175-2.172,1.547c-0.832,0.392-1.724,0.578-2.67,0.578h-2.291c-0.32,0-0.615,0.06-0.897,0.18
			c-0.267,0.12-0.513,0.299-0.718,0.506c-0.213,0.219-0.369,0.47-0.483,0.765c-0.123,0.296-0.187,0.603-0.187,0.938v2.386h10.813
			v4.816h-15.375v-7.203c0-0.99,0.178-1.923,0.537-2.801c0.357-0.877,0.846-1.645,1.467-2.296c0.621-0.648,1.355-1.157,2.184-1.54
			c0.82-0.366,1.711-0.556,2.66-0.556h2.291c0.319,0,0.613-0.065,0.896-0.191c0.278-0.119,0.524-0.281,0.72-0.503
			c0.212-0.222,0.373-0.475,0.498-0.777c0.116-0.285,0.173-0.602,0.173-0.938c0-0.334-0.057-0.651-0.173-0.937
			c-0.125-0.289-0.286-0.539-0.498-0.761c-0.195-0.222-0.441-0.384-0.72-0.511c-0.282-0.13-0.576-0.19-0.896-0.19h-8.152v-4.797
			h8.152c0.947,0,1.838,0.187,2.67,0.569c0.817,0.382,1.551,0.892,2.172,1.541c0.621,0.667,1.11,1.415,1.467,2.286
			C385.479-58.985,385.667-58.054,385.667-57.054z"/>
		<path fill="#41474D" d="M406.667-52.25c0,1.095-0.136,2.159-0.413,3.18c-0.286,1.025-0.687,1.983-1.204,2.86
			c-0.517,0.888-1.14,1.698-1.857,2.426c-0.717,0.729-1.51,1.364-2.393,1.884c-0.886,0.522-1.825,0.927-2.841,1.215
			c-0.998,0.29-2.049,0.434-3.152,0.434h-7.141v-24h7.141c1.104,0,2.154,0.144,3.152,0.434c1.016,0.271,1.955,0.676,2.841,1.207
			c0.883,0.53,1.676,1.146,2.393,1.875c0.718,0.736,1.341,1.539,1.857,2.43c0.518,0.892,0.918,1.85,1.204,2.858
			C406.531-54.423,406.667-53.363,406.667-52.25z M401.929-52.25c0-0.99-0.183-1.924-0.563-2.796
			c-0.364-0.869-0.866-1.631-1.518-2.28c-0.65-0.665-1.397-1.177-2.268-1.549c-0.868-0.388-1.793-0.578-2.774-0.578h-2.359v14.386
			h2.359c0.981,0,1.906-0.182,2.774-0.547c0.87-0.384,1.617-0.892,2.268-1.541c0.651-0.662,1.153-1.418,1.518-2.295
			C401.747-50.327,401.929-51.26,401.929-52.25z"/>
		<path fill="#41474D" d="M425.667-40.25h-4.505v-4.816h-9.01v4.816h-4.485v-14.395c0-1.336,0.242-2.576,0.709-3.748
			c0.478-1.155,1.115-2.177,1.927-3.048c0.808-0.87,1.76-1.56,2.857-2.053c1.081-0.51,2.257-0.757,3.497-0.757
			c1.247,0,2.416,0.247,3.512,0.757c1.088,0.494,2.037,1.184,2.859,2.053c0.82,0.871,1.454,1.893,1.929,3.048
			c0.475,1.172,0.709,2.412,0.709,3.748L425.667-40.25L425.667-40.25z M421.161-49.841v-4.803c0-0.666-0.116-1.275-0.349-1.874
			c-0.244-0.582-0.566-1.085-0.967-1.529c-0.415-0.426-0.886-0.771-1.438-1.018c-0.552-0.264-1.139-0.387-1.752-0.387
			s-1.2,0.123-1.743,0.387c-0.553,0.246-1.032,0.592-1.438,1.018c-0.407,0.444-0.729,0.947-0.961,1.529
			c-0.239,0.599-0.362,1.208-0.362,1.874v4.803H421.161z"/>
		<path fill="#41474D" d="M437.911-40.25h-4.486v-19.203h-6.759v-4.797h18v4.797h-6.755V-40.25z"/>
		<path fill="#41474D" d="M461.667-40.25h-16v-24h16v4.797H450.33v4.808h7.674v4.803h-7.674v4.775h11.337V-40.25z"/>
	</g>
</g>
<g id="Layer_7" display="none">
	<rect x="-28" y="-15" display="inline" fill="#050505" width="265" height="137"/>
</g>
<g id="Layer_6">
	<g>
		<g>
			<path fill="#FFFFFF" d="M9.506,82.5c-1.755,0-3.241-0.3-4.518-0.912c-1.278-0.612-2.347-1.374-3.237-2.325l0.771-0.71
				c0.839,0.897,1.855,1.621,3.071,2.163c1.191,0.544,2.484,0.803,3.911,0.803c0.92,0,1.781-0.117,2.524-0.346
				c0.744-0.211,1.385-0.527,1.921-0.938c0.521-0.397,0.922-0.865,1.233-1.438c0.282-0.554,0.44-1.179,0.44-1.881
				c0-0.704-0.12-1.298-0.358-1.803c-0.236-0.477-0.541-0.896-0.942-1.258c-0.373-0.348-0.826-0.654-1.355-0.925
				c-0.509-0.246-1.059-0.503-1.652-0.745l-3.596-1.475c-0.475-0.199-1.007-0.432-1.566-0.724c-0.55-0.282-1.047-0.627-1.523-1.025
				c-0.475-0.393-0.844-0.871-1.158-1.457c-0.31-0.557-0.447-1.257-0.447-2.048c0-0.762,0.153-1.444,0.479-2.069
				c0.326-0.623,0.786-1.169,1.381-1.631c0.593-0.439,1.27-0.8,2.062-1.058c0.803-0.229,1.664-0.358,2.615-0.358
				c1.396,0,2.635,0.244,3.722,0.768c1.055,0.505,1.923,1.082,2.609,1.764l-0.69,0.706c-0.679-0.694-1.495-1.233-2.445-1.645
				c-0.92-0.41-2.005-0.615-3.195-0.615c-1.623,0-2.934,0.364-3.928,1.111c-0.998,0.748-1.491,1.722-1.491,2.963
				c0,0.665,0.123,1.244,0.407,1.692c0.263,0.478,0.597,0.871,1.023,1.211c0.402,0.335,0.839,0.614,1.313,0.843
				c0.476,0.222,0.923,0.43,1.338,0.594l3.594,1.496c0.625,0.244,1.254,0.535,1.834,0.85c0.61,0.314,1.127,0.687,1.589,1.123
				c0.46,0.438,0.831,0.95,1.083,1.531c0.283,0.586,0.424,1.315,0.424,2.133s-0.19,1.571-0.542,2.236
				c-0.335,0.694-0.839,1.28-1.463,1.784c-0.654,0.503-1.409,0.91-2.301,1.192C11.553,82.347,10.574,82.5,9.506,82.5z"/>
			<path fill="#FFFFFF" d="M35.495,82.5c-0.907,0-1.772-0.164-2.59-0.507c-0.818-0.321-1.536-0.801-2.154-1.445
				c-0.604-0.618-1.099-1.389-1.45-2.291c-0.366-0.93-0.549-1.958-0.549-3.123c0-1.16,0.184-2.209,0.549-3.137
				c0.352-0.926,0.847-1.708,1.45-2.324c0.619-0.618,1.335-1.096,2.154-1.443c0.818-0.321,1.684-0.502,2.59-0.502
				c0.909,0,1.785,0.181,2.604,0.502c0.818,0.348,1.535,0.825,2.143,1.443c0.607,0.616,1.109,1.398,1.462,2.324
				c0.356,0.928,0.549,1.977,0.549,3.137c0,1.165-0.192,2.193-0.549,3.123c-0.352,0.902-0.854,1.673-1.462,2.291
				c-0.606,0.643-1.325,1.121-2.143,1.445C37.28,82.336,36.404,82.5,35.495,82.5z M35.495,81.672c0.811,0,1.564-0.16,2.264-0.476
				c0.696-0.305,1.3-0.759,1.81-1.328c0.51-0.576,0.913-1.271,1.208-2.071c0.296-0.778,0.457-1.675,0.457-2.663
				c0-0.955-0.16-1.834-0.457-2.662c-0.294-0.801-0.698-1.507-1.208-2.09c-0.51-0.568-1.112-1.024-1.81-1.333
				c-0.699-0.336-1.453-0.486-2.264-0.486c-0.807,0-1.55,0.152-2.247,0.486c-0.698,0.309-1.302,0.765-1.812,1.333
				c-0.51,0.583-0.911,1.287-1.208,2.09c-0.297,0.831-0.455,1.707-0.455,2.662c0,0.988,0.158,1.884,0.455,2.663
				c0.296,0.801,0.699,1.497,1.208,2.071c0.51,0.569,1.114,1.024,1.812,1.328C33.944,81.513,34.688,81.672,35.495,81.672z"/>
			<path fill="#FFFFFF" d="M143.494,82.5c-0.907,0-1.772-0.164-2.59-0.507c-0.816-0.321-1.537-0.801-2.153-1.445
				c-0.605-0.618-1.102-1.389-1.451-2.291c-0.366-0.93-0.549-1.958-0.549-3.123c0-1.16,0.185-2.209,0.549-3.137
				c0.35-0.926,0.846-1.708,1.451-2.324c0.616-0.618,1.334-1.096,2.153-1.443c0.817-0.321,1.683-0.502,2.59-0.502
				c0.908,0,1.785,0.181,2.605,0.502c0.816,0.348,1.534,0.825,2.142,1.443c0.605,0.616,1.107,1.398,1.461,2.324
				c0.356,0.928,0.55,1.977,0.55,3.137c0,1.165-0.192,2.193-0.55,3.123c-0.351,0.902-0.855,1.673-1.461,2.291
				c-0.606,0.643-1.325,1.121-2.142,1.445C145.279,82.336,144.402,82.5,143.494,82.5z M143.494,81.672
				c0.811,0,1.564-0.16,2.263-0.476c0.697-0.305,1.303-0.759,1.812-1.328c0.509-0.576,0.912-1.271,1.209-2.071
				c0.295-0.778,0.456-1.675,0.456-2.663c0-0.955-0.16-1.834-0.456-2.662c-0.297-0.801-0.7-1.507-1.209-2.09
				c-0.509-0.568-1.111-1.024-1.812-1.333c-0.698-0.336-1.452-0.486-2.263-0.486c-0.808,0-1.55,0.152-2.246,0.486
				c-0.7,0.309-1.304,0.765-1.813,1.333c-0.509,0.583-0.912,1.287-1.209,2.09c-0.297,0.831-0.453,1.707-0.453,2.662
				c0,0.988,0.156,1.884,0.453,2.663c0.297,0.801,0.7,1.497,1.209,2.071c0.509,0.569,1.112,1.024,1.813,1.328
				C141.943,81.513,142.687,81.672,143.494,81.672z"/>
			<path fill="#FFFFFF" d="M57.203,82.5c-0.464,0-0.818-0.158-1.065-0.45c-0.268-0.292-0.387-0.788-0.387-1.478V60.341h0.911V80.75
				c0,0.607,0.206,0.9,0.619,0.9c0.052,0,0.114,0,0.198,0c0.065,0,0.188-0.011,0.342-0.064L58,82.371
				c-0.122,0.053-0.224,0.064-0.34,0.093C57.544,82.487,57.394,82.5,57.203,82.5z"/>
			<path fill="#FFFFFF" d="M77.456,82.5c-1.537,0-2.647-0.456-3.374-1.337C73.354,80.29,73,78.902,73,77.001v-9.273h0.928v9.155
				c0,1.614,0.285,2.818,0.832,3.601c0.546,0.778,1.472,1.167,2.75,1.167c0.925,0,1.77-0.253,2.525-0.761
				c0.753-0.505,1.615-1.281,2.526-2.368V67.728h0.939v14.409h-0.81l-0.129-2.476h-0.052c-0.744,0.837-1.525,1.521-2.312,2.052
				C79.397,82.234,78.473,82.5,77.456,82.5z"/>
			<path fill="#FFFFFF" d="M103.897,82.5c-0.635,0-1.169-0.104-1.567-0.309c-0.425-0.202-0.744-0.484-0.985-0.846
				c-0.266-0.382-0.436-0.812-0.533-1.336c-0.097-0.525-0.132-1.094-0.132-1.708v-9.885h-2.179v-0.73l2.179-0.112l0.12-4.276h0.732
				v4.276h4.083v0.843h-4.083v9.986c0,0.487,0.036,0.902,0.097,1.301c0.085,0.396,0.188,0.75,0.36,1.031
				c0.184,0.281,0.425,0.51,0.727,0.663c0.325,0.155,0.728,0.244,1.229,0.244c0.268,0,0.568-0.052,0.883-0.151
				c0.34-0.103,0.619-0.219,0.888-0.34l0.284,0.788c-0.387,0.179-0.792,0.295-1.191,0.396C104.435,82.436,104.114,82.5,103.897,82.5
				z"/>
			<path fill="#FFFFFF" d="M122.12,65.246c-0.309,0-0.56-0.093-0.782-0.277c-0.226-0.187-0.338-0.417-0.338-0.708
				c0-0.313,0.112-0.574,0.338-0.73c0.223-0.154,0.474-0.233,0.782-0.233c0.308,0,0.589,0.075,0.812,0.233
				c0.216,0.156,0.321,0.417,0.321,0.73c0,0.291-0.105,0.523-0.321,0.708C122.709,65.153,122.426,65.246,122.12,65.246z
				 M121.589,82.5V68.758h1.005V82.5H121.589z"/>
			<path fill="#FFFFFF" d="M163.75,82.5V68.102h0.804l0.13,2.277h0.052c0.778-0.761,1.568-1.388,2.374-1.887
				c0.805-0.504,1.698-0.766,2.735-0.766c1.502,0,2.63,0.452,3.336,1.334c0.722,0.889,1.069,2.262,1.069,4.151V82.5h-0.904v-9.158
				c0-1.619-0.273-2.798-0.845-3.583c-0.541-0.785-1.464-1.176-2.733-1.176c-0.908,0-1.761,0.227-2.534,0.708
				c-0.765,0.48-1.615,1.214-2.548,2.176V82.5H163.75z"/>
			<path fill="#FFFFFF" d="M193.282,82.5c-1.133,0-2.178-0.19-3.114-0.574c-0.94-0.384-1.746-0.835-2.418-1.378l0.645-0.693
				c0.625,0.495,1.333,0.939,2.095,1.286c0.75,0.348,1.72,0.531,2.871,0.531c0.618,0,1.198-0.093,1.678-0.254
				c0.484-0.159,0.889-0.39,1.211-0.661c0.323-0.273,0.55-0.598,0.739-0.958c0.161-0.357,0.242-0.735,0.242-1.133
				c0-0.469-0.121-0.884-0.337-1.215c-0.243-0.334-0.535-0.644-0.904-0.899c-0.357-0.287-0.768-0.492-1.211-0.668
				c-0.471-0.19-0.912-0.356-1.362-0.502c-0.593-0.2-1.175-0.407-1.774-0.632c-0.584-0.198-1.108-0.471-1.589-0.765
				c-0.471-0.281-0.854-0.651-1.148-1.058c-0.295-0.434-0.455-0.934-0.455-1.555c0-0.492,0.098-0.958,0.3-1.387
				c0.202-0.459,0.505-0.838,0.907-1.17c0.4-0.336,0.901-0.604,1.49-0.804c0.602-0.193,1.305-0.288,2.085-0.288
				c0.75,0,1.515,0.138,2.25,0.396c0.74,0.27,1.4,0.612,1.939,1.028l-0.565,0.695c-0.509-0.346-1.06-0.654-1.624-0.899
				c-0.565-0.271-1.259-0.382-2.067-0.382c-0.631,0-1.196,0.071-1.651,0.22c-0.473,0.174-0.862,0.367-1.154,0.647
				c-0.299,0.261-0.529,0.557-0.659,0.862c-0.159,0.337-0.23,0.664-0.23,1.036c0,0.42,0.108,0.784,0.327,1.093
				c0.212,0.311,0.488,0.569,0.84,0.803c0.345,0.211,0.736,0.413,1.181,0.587c0.437,0.175,0.88,0.359,1.348,0.507
				c0.606,0.222,1.212,0.427,1.819,0.644c0.604,0.221,1.154,0.475,1.625,0.782c0.49,0.311,0.885,0.694,1.194,1.152
				c0.305,0.457,0.449,1.031,0.449,1.723c0,0.492-0.115,0.989-0.344,1.458c-0.204,0.47-0.523,0.891-0.939,1.236
				c-0.414,0.359-0.94,0.645-1.568,0.853C194.778,82.388,194.067,82.5,193.282,82.5z"/>
		</g>
		<path fill="#FFFFFF" d="M29.501,38.786c0,1.958-0.367,3.788-1.127,5.52c-0.734,1.726-1.763,3.21-3.059,4.494
			c-1.281,1.284-2.791,2.279-4.524,3.037c-1.735,0.727-3.582,1.116-5.556,1.116c-1.973,0-3.819-0.39-5.542-1.116
			c-1.746-0.755-3.241-1.753-4.521-3.037c-1.286-1.283-2.308-2.77-3.044-4.494C1.368,42.574,1,40.742,1,38.786V17.5h7.114v21.286
			c0,0.969,0.185,1.891,0.551,2.738c0.368,0.847,0.88,1.613,1.518,2.243c0.66,0.657,1.409,1.166,2.275,1.529
			c0.868,0.366,1.799,0.545,2.775,0.545c0.976,0,1.91-0.18,2.776-0.545c0.867-0.363,1.615-0.872,2.277-1.529
			c0.634-0.63,1.149-1.395,1.515-2.243c0.367-0.847,0.56-1.769,0.56-2.738V17.5H29.5v21.286H29.501z"/>
		<path fill="#FFFFFF" d="M39.258,52.953h-6.757V17.5h13.517c1.239,0,2.419,0.161,3.567,0.509c1.146,0.332,2.224,0.824,3.208,1.421
			c1.009,0.625,1.907,1.38,2.731,2.239c0.833,0.859,1.527,1.814,2.119,2.883c0.594,1.045,1.042,2.186,1.374,3.381
			c0.308,1.191,0.485,2.461,0.485,3.756c0,1.946-0.37,3.766-1.062,5.499c-0.719,1.722-1.682,3.215-2.907,4.5
			c-1.221,1.286-2.656,2.306-4.278,3.055c-1.644,0.733-3.401,1.094-5.236,1.094h-6.759V52.953z M39.258,24.587v14.198h6.759
			c0.919,0,1.793-0.182,2.598-0.568c0.83-0.369,1.534-0.876,2.156-1.508c0.597-0.655,1.082-1.399,1.432-2.257
			c0.369-0.88,0.542-1.784,0.542-2.763c0-0.983-0.173-1.884-0.542-2.769c-0.349-0.86-0.834-1.602-1.432-2.259
			c-0.622-0.629-1.326-1.139-2.156-1.503c-0.805-0.391-1.681-0.572-2.598-0.572H39.258z"/>
		<path fill="#FFFFFF" d="M116.501,35.227c0,1.618-0.205,3.19-0.62,4.698c-0.43,1.515-1.03,2.93-1.807,4.225
			c-0.774,1.312-1.709,2.509-2.785,3.584c-1.076,1.077-2.266,2.016-3.589,2.783c-1.329,0.771-2.736,1.37-4.261,1.796
			c-1.497,0.429-3.073,0.64-4.728,0.64H87.999V17.5H98.71c1.655,0,3.231,0.212,4.728,0.642c1.525,0.4,2.933,0.998,4.261,1.783
			c1.324,0.782,2.513,1.692,3.589,2.77c1.076,1.087,2.011,2.274,2.785,3.589c0.776,1.318,1.377,2.733,1.807,4.223
			C116.296,32.018,116.501,33.583,116.501,35.227z M109.396,35.227c0-1.462-0.274-2.842-0.844-4.13
			c-0.547-1.284-1.3-2.409-2.276-3.368c-0.977-0.983-2.097-1.739-3.403-2.288c-1.302-0.574-2.689-0.854-4.161-0.854h-3.539v21.251
			h3.539c1.472,0,2.859-0.269,4.161-0.808c1.306-0.568,2.426-1.318,3.403-2.277c0.976-0.978,1.729-2.095,2.276-3.39
			C109.121,38.068,109.396,36.69,109.396,35.227z"/>
		<path fill="#FFFFFF" d="M145,52.953h-6.757V45.84h-13.517v7.113h-6.726V31.689c0-1.973,0.363-3.806,1.063-5.537
			c0.716-1.706,1.674-3.215,2.89-4.502c1.212-1.285,2.64-2.305,4.286-3.033c1.623-0.751,3.387-1.117,5.246-1.117
			c1.87,0,3.624,0.365,5.269,1.118c1.631,0.73,3.055,1.75,4.289,3.033c1.229,1.287,2.178,2.796,2.893,4.502
			c0.713,1.732,1.063,3.564,1.063,5.537v21.263H145z M138.243,38.786V31.69c0-0.983-0.175-1.883-0.522-2.769
			c-0.366-0.86-0.851-1.602-1.451-2.259c-0.62-0.629-1.329-1.139-2.155-1.503c-0.829-0.391-1.709-0.572-2.629-0.572
			c-0.919,0-1.801,0.181-2.613,0.572c-0.831,0.363-1.549,0.874-2.158,1.503c-0.612,0.657-1.094,1.399-1.442,2.259
			c-0.36,0.885-0.545,1.785-0.545,2.769v7.096H138.243z"/>
		<path fill="#FFFFFF" d="M163.367,52.953h-6.729V24.587h-10.138V17.5H173.5v7.087h-10.133V52.953z"/>
		<path fill="#FFFFFF" d="M199,52.953h-24V17.5h24v7.087h-17.005v7.102h11.51v7.096h-11.51v7.054H199V52.953z"/>
	</g>
	<g>
		<ellipse fill="#99F1FF" cx="63.626" cy="21.177" rx="3.733" ry="3.677"/>
	</g>
	<g>
		<ellipse fill="#39B1E5" cx="81.626" cy="49.254" rx="3.745" ry="3.69"/>
	</g>
	
		<linearGradient id="SVGID_3_" gradientUnits="userSpaceOnUse" x1="-41.8203" y1="163.5537" x2="-45.0064" y2="127.1381" gradientTransform="matrix(1 0 0 -1 116 181)">
		<stop  offset="0" style="stop-color:#99F1FF"/>
		<stop  offset="1" style="stop-color:#39B1E5"/>
	</linearGradient>
	<path fill="url(#SVGID_3_)" d="M76.38,49.253c0-1.446,0.611-2.753,1.588-3.692l-9.982,0.007c0.013,0-0.087-3.566,0.141-4.628
		c0.084-0.393,0.233-0.772,0.486-1.127c0.49-0.687,1.159-1.29,1.988-1.538c0.938-0.281,2.06-0.1,3.026-0.093
		c0.235,0.001,0.47,0,0.706,0c1.421,0,2.758,0.028,4.006-0.55c1.225-0.552,2.326-1.154,3.258-2.135c0.931-0.961,1.665-2,2.201-3.293
		c0.547-1.296,0.83-2.638,0.83-4.111c0-1.477-0.282-2.832-0.83-4.118c-0.536-1.286-1.27-2.383-2.201-3.366
		c-0.932-0.958-2.033-1.708-3.258-2.272C77.09,17.77,75.752,17.5,74.332,17.5h-7.049c0.97,0.937,1.577,2.237,1.577,3.677
		c0,1.456-0.624,2.77-1.614,3.706c2.036-0.005,4.082-0.084,6.112-0.009c1.245,0.043,2.563-0.082,3.508,0.937
		c1.688,1.821,0.783,4.686-1.191,5.889c-1.396,0.851-3.205,0.573-4.778,0.573c-1.423,0-2.758-0.012-3.992,0.529
		c-1.242,0.564-2.342,1.169-3.274,2.128c-0.932,0.962-1.664,2.024-2.2,3.319c-0.537,1.297-0.804,2.604-0.804,4.064v10.64
		l17.348-0.004C76.994,52.007,76.38,50.701,76.38,49.253z"/>
</g>
</svg>
